<svg width="50" height="50" viewBox="0 0 500 500" fill="none" xmlns="http://www.w3.org/2000/svg">
<g clip-path="url(#clip0_2_7)">
<path d="M416.667 364.583C424.692 364.587 432.408 367.679 438.216 373.217C444.025 378.755 447.479 386.315 447.865 394.332C448.251 402.348 445.538 410.205 440.288 416.275C435.038 422.345 427.655 426.163 419.667 426.938L416.667 427.083H83.3333C75.308 427.079 67.5918 423.988 61.7836 418.45C55.9754 412.912 52.5206 405.351 52.1349 397.335C51.7492 389.319 54.4623 381.462 59.712 375.392C64.9616 369.321 72.3454 365.504 80.3333 364.729L83.3333 364.583H416.667ZM416.667 218.75C424.955 218.75 432.903 222.042 438.764 227.903C444.624 233.763 447.917 241.712 447.917 250C447.917 258.288 444.624 266.237 438.764 272.097C432.903 277.958 424.955 281.25 416.667 281.25H83.3333C75.0453 281.25 67.0967 277.958 61.2362 272.097C55.3757 266.237 52.0833 258.288 52.0833 250C52.0833 241.712 55.3757 233.763 61.2362 227.903C67.0967 222.042 75.0453 218.75 83.3333 218.75H416.667ZM416.667 72.9167C424.955 72.9167 432.903 76.2091 438.764 82.0696C444.624 87.9301 447.917 95.8786 447.917 104.167C447.917 112.455 444.624 120.403 438.764 126.264C432.903 132.124 424.955 135.417 416.667 135.417H83.3333C75.0453 135.417 67.0967 132.124 61.2362 126.264C55.3757 120.403 52.0833 112.455 52.0833 104.167C52.0833 95.8786 55.3757 87.9301 61.2362 82.0696C67.0967 76.2091 75.0453 72.9167 83.3333 72.9167H416.667Z" fill="#8a7d6f"/>
</g>
<defs>
<clipPath id="clip0_2_7">
<rect width="500" height="500" fill="white"/>
</clipPath>
</defs>
</svg>
