<svg width="50" height="50" viewBox="0 0 50 50" fill="none" xmlns="http://www.w3.org/2000/svg">
<path d="M9.25005 9.24999C9.83599 8.66478 10.6303 8.33607 11.4584 8.33607C12.2865 8.33607 13.0808 8.66478 13.6667 9.24999L25 20.5792L36.3334 9.24999C36.6234 8.95999 36.9677 8.72994 37.3466 8.57299C37.7255 8.41605 38.1316 8.33527 38.5417 8.33527C38.9518 8.33527 39.3579 8.41605 39.7369 8.57299C40.1158 8.72994 40.46 8.95999 40.75 9.24999C41.04 9.53999 41.2701 9.88427 41.427 10.2632C41.584 10.6421 41.6648 11.0482 41.6648 11.4583C41.6648 11.8684 41.584 12.2746 41.427 12.6535C41.2701 13.0324 41.04 13.3767 40.75 13.6667L29.4209 25L40.75 36.3333C41.3357 36.919 41.6648 37.7134 41.6648 38.5417C41.6648 39.3699 41.3357 40.1643 40.75 40.75C40.1644 41.3357 39.37 41.6647 38.5417 41.6647C37.7134 41.6647 36.9191 41.3357 36.3334 40.75L25 29.4208L13.6667 40.75C13.081 41.3357 12.2867 41.6647 11.4584 41.6647C10.6301 41.6647 9.83574 41.3357 9.25005 40.75C8.66436 40.1643 8.33533 39.3699 8.33533 38.5417C8.33533 37.7134 8.66436 36.919 9.25005 36.3333L20.5792 25L9.25005 13.6667C8.66484 13.0807 8.33613 12.2864 8.33613 11.4583C8.33613 10.6302 8.66484 9.83593 9.25005 9.24999Z" fill="#8A7D6F"/>
</svg>
